# ProBuilder 6.0.8
# https://unity3d.com/unity/features/worldbuilding/probuilder
# 11/18/2025 2:58:06 PM

mtllib ./PinBallBoard.mtl
o PinBallBoard

g PolyShape
v 0 0 -0.9
v 0 0 -0.8
v -0.4097545 0 -0.6400411
v -0.4465225 0 -0.6066156
v -0.4732629 0 -0.5564774
v -0.4766054 0 -0.4829414
v -0.2860803 0 0.09531903
v -0.4465225 0 0.3426675
v -0.5152915 0 0.5780926
v -0.5107762 0 0.6716838
v -0.4830056 0 0.7444745
v -0.4337552 0 0.8015497
v -0.3535341 0 0.8493427
v -0.2638552 0 0.8797103
v -0.2 0 0.9
v -0.4832906 0 0.9109
v -0.5401138 0 0.8875023
v -0.5802243 0 0.8440493
v -0.6 0 0.8000001
v -0.6 0 0.6999999
v -0.6 0 0.4
v -0.6 0 -0.9
v -0.7 0 -0.9
v -0.7 0 0.8000001
v -0.6779298 0 0.8594264
v -0.6306161 0 0.9225112
v -0.5717368 0 0.9708763
v -0.5 0 1
v -0.3651024 0 1.016987
v -0.1571778 0 1.020873
v 0.140135 0 1.02476
v 0.3305706 0 1.005327
v 0.3807569 0 1.021514
v 0.4366552 0 1.044644
v 0.5118288 0 1.058137
v 0.5677271 0 1.056209
v 0.6159154 0 1.029224
v 0.6544659 0 0.9848909
v 0.6641035 0 0.9270651
v 0.6544659 0 0.8634567
v 0.6313356 0 0.8268336
v 0.5966401 0 0.7902106
v 0.5619445 0 0.776718
v 0.5465243 0 0.7458775
v 0.5677271 0 0.7208196
v 0.6043502 0 0.6919067
v 0.6448283 0 0.6244432
v 0.6660311 0 0.5569798
v 0.6718137 0 0.4991539
v 0.6698861 0 0.4336179
v 0.648363 0 0.3270189
v 0.6131688 0 0.2346345
v 0.582374 0 0.159847
v 0.5471799 0 0.09825742
v 0.6627294 0 -0.4905373
v 0.6649113 0 -0.5407202
v 0.654002 0 -0.593085
v 0.6234558 0 -0.6345404
v 0.5689092 0 -0.6825415
v 0.2 0 -0.8
v 0.2 0 -0.9
v 0.6234558 0.07 -0.6345404
v 0.654002 0.07 -0.593085
v 0.6649113 0.07 -0.5407202
v 0.5689092 0.07 -0.6825415
v 0.6627294 0.07 -0.4905373
v 0.2 0.07 -0.8
v 0.5471799 0.07 0.09825742
v 0 0.07 -0.9
v 0.2 0.07 -0.9
v 0 0.07 -0.8
v -0.4766054 0.07 -0.4829414
v -0.4732629 0.07 -0.5564774
v -0.4465225 0.07 -0.6066156
v -0.4097545 0.07 -0.6400411
v -0.2860803 0.07 0.09531903
v 0.582374 0.07 0.159847
v -0.4830056 0.07 0.7444745
v -0.5107762 0.07 0.6716838
v -0.4337552 0.07 0.8015497
v -0.5152915 0.07 0.5780926
v -0.4465225 0.07 0.3426675
v -0.3535341 0.07 0.8493427
v -0.2638552 0.07 0.8797103
v -0.2 0.07 0.9
v 0.5966401 0.07 0.7902106
v 0.6313356 0.07 0.8268336
v 0.5619445 0.07 0.776718
v 0.6641035 0.07 0.9270651
v 0.6544659 0.07 0.9848909
v 0.6159154 0.07 1.029224
v 0.6544659 0.07 0.8634567
v 0.5677271 0.07 1.056209
v 0.5118288 0.07 1.058137
v 0.4366552 0.07 1.044644
v 0.3807569 0.07 1.021514
v 0.3305706 0.07 1.005327
v 0.5465243 0.07 0.7458775
v 0.140135 0.07 1.02476
v -0.7 0.07 -0.9
v -0.6 0.07 -0.9
v -0.6 0.07 0.4
v -0.7 0.07 0.8000001
v -0.6 0.07 0.6999999
v -0.6 0.07 0.8000001
v -0.6779298 0.07 0.8594264
v -0.5802243 0.07 0.8440493
v -0.6306161 0.07 0.9225112
v -0.5401138 0.07 0.8875023
v -0.5717368 0.07 0.9708763
v -0.4832906 0.07 0.9109
v -0.5 0.07 1
v -0.3651024 0.07 1.016987
v -0.1571778 0.07 1.020873
v 0.6131688 0.07 0.2346345
v 0.5677271 0.07 0.7208196
v 0.648363 0.07 0.3270189
v 0.6043502 0.07 0.6919067
v 0.6698861 0.07 0.4336179
v 0.6448283 0.07 0.6244432
v 0.6718137 0.07 0.4991539
v 0.6660311 0.07 0.5569798

vt -0.04875956 0.02081484
vt -0.04875956 0.1208149
vt 0.3609949 0.2807738
vt 0.397763 0.3141993
vt 0.4245033 0.3643375
vt 0.4278458 0.4378735
vt 0.2373208 1.016134
vt 0.397763 1.263482
vt 0.4665319 1.498907
vt 0.4620166 1.592499
vt 0.434246 1.665289
vt 0.3849956 1.722365
vt 0.3047745 1.770158
vt 0.2150956 1.800525
vt 0.1512404 1.820815
vt 0.434531 1.831715
vt 0.4913542 1.808317
vt 0.5314647 1.764864
vt 0.5512404 1.720815
vt 0.5512404 1.620815
vt 0.5512404 1.320815
vt 0.5512404 0.02081484
vt 0.6512404 0.02081484
vt 0.6512404 1.720815
vt 0.6291702 1.780241
vt 0.5818565 1.843326
vt 0.5229772 1.891691
vt 0.4512404 1.920815
vt 0.3163428 1.937802
vt 0.1084182 1.941688
vt -0.1888945 1.945575
vt -0.3793302 1.926142
vt -0.4295164 1.942329
vt -0.4854148 1.965459
vt -0.5605884 1.978952
vt -0.6164867 1.977024
vt -0.6646749 1.950039
vt -0.7032255 1.905706
vt -0.7128631 1.84788
vt -0.7032255 1.784272
vt -0.6800952 1.747648
vt -0.6453997 1.711025
vt -0.6107041 1.697533
vt -0.5952839 1.666692
vt -0.6164867 1.641634
vt -0.6531098 1.612722
vt -0.6935879 1.545258
vt -0.7147907 1.477795
vt -0.7205732 1.419969
vt -0.7186457 1.354433
vt -0.6971226 1.247834
vt -0.6619284 1.155449
vt -0.6311336 1.080662
vt -0.5959395 1.019072
vt -0.711489 0.4302776
vt -0.7136708 0.3800947
vt -0.7027615 0.3277299
vt -0.6722153 0.2862744
vt -0.6176687 0.2382734
vt -0.2487596 0.1208149
vt -0.2487596 0.02081484
vt 0.6292248 0
vt 0.6807187 0
vt 0.6292248 0.07
vt 0.6807187 0.07
vt 0.4641721 0
vt 0.5176613 0
vt 0.4641721 0.07
vt 0.5176613 0.07
vt 0.6211022 0
vt 0.6937619 0
vt 0.6211022 0.07
vt 0.6937619 0.07
vt 0.3487357 0
vt 0.3989661 0
vt 0.3487357 0.07
vt 0.3989661 0.07
vt 0.2736886 0
vt 0.6608455 0
vt 0.2736886 0.07
vt 0.6608455 0.07
vt 0.2852095 0
vt 0.8852352 0
vt 0.2852095 0.07
vt 0.8852352 0.07
vt 0.04875956 0
vt 0.2487596 0
vt 0.04875956 0.07
vt 0.2487596 0.07
vt -0.1208149 0
vt -0.02081484 0
vt -0.1208149 0.07
vt -0.02081484 0.07
vt 0.02081484 0
vt 0.1208149 0
vt 0.02081484 0.07
vt 0.1208149 0.07
vt -0.4568491 0
vt -0.3832372 0
vt -0.4568491 0.07
vt -0.3832372 0.07
vt -0.5212405 0
vt -0.4644172 0
vt -0.5212405 0.07
vt -0.4644172 0.07
vt -0.5056741 0
vt -0.4559835 0
vt -0.5056741 0.07
vt -0.4559835 0.07
vt -0.4383831 0
vt 0.001486877 0
vt -0.4383831 0.07
vt 0.001486877 0.07
vt -0.890834 0
vt -0.281995 0
vt -0.890834 0.07
vt -0.281995 0.07
vt 1.180471 0
vt 1.251407 0
vt 1.180471 0.07
vt 1.251407 0.07
vt -1.401114 0
vt -1.323206 0
vt -1.401114 0.07
vt -1.323206 0.07
vt -1.052478 0
vt -0.9770914 0
vt -1.052478 0.07
vt -0.9770914 0.07
vt -1.568385 0
vt -1.474684 0
vt -1.568385 0.07
vt -1.474684 0.07
vt -1.569591 0
vt -1.324328 0
vt -1.569591 0.07
vt -1.324328 0.07
vt -0.6441706 0
vt -0.5507919 0
vt -0.6441706 0.07
vt -0.5507919 0.07
vt -0.3737613 0
vt -0.2790802 0
vt -0.3737613 0.07
vt -0.2790802 0.07
vt -0.4072503 0
vt -0.3402492 0
vt -0.4072503 0.07
vt -0.3402492 0.07
vt -1.276472 0
vt -0.9816449 0
vt -1.276472 0.07
vt -0.9816449 0.07
vt 1.685993 0
vt 1.736442 0
vt 1.685993 0.07
vt 1.736442 0.07
vt 1.184439 0
vt 1.221666 0
vt 1.184439 0.07
vt 1.221666 0.07
vt 1.705544 0
vt 1.764168 0
vt 1.705544 0.07
vt 1.764168 0.07
vt 0.9766138 0
vt 1.035364 0
vt 0.9766138 0.07
vt 1.035364 0.07
vt 1.869484 0
vt 1.933818 0
vt 1.869484 0.07
vt 1.933818 0.07
vt 1.840784 0
vt 1.8841 0
vt 1.840784 0.07
vt 1.8841 0.07
vt 0.372863 0
vt 0.4280927 0
vt 0.372863 0.07
vt 0.4280927 0.07
vt -0.547989 0
vt -0.4920574 0
vt -0.547989 0.07
vt -0.4920574 0.07
vt -0.9013808 0
vt -0.8250059 0
vt -0.9013808 0.07
vt -0.8250059 0.07
vt -1.20003 0
vt -1.139535 0
vt -1.20003 0.07
vt -1.139535 0.07
vt -1.004993 0
vt -0.9522609 0
vt -1.004993 0.07
vt -0.9522609 0.07
vt 1.756954 0
vt 1.791435 0
vt 1.756954 0.07
vt 1.791435 0.07
vt -0.1818398 0
vt 0.009584731 0
vt -0.1818398 0.07
vt 0.009584731 0.07
vt -0.6512404 0
vt -0.5512404 0
vt -0.6512404 0.07
vt -0.5512404 0.07
vt 1.320815 0
vt 1.320815 0.07
vt -1.720815 0
vt -1.720815 0.07
vt 1.620815 0
vt 1.620815 0.07
vt 1.720815 0
vt 1.720815 0.07
vt -1.449818 0
vt -1.386425 0
vt -1.449818 0.07
vt -1.386425 0.07
vt 1.344098 0
vt 1.392383 0
vt 1.344098 0.07
vt 1.392383 0.07
vt -1.125546 0
vt -1.04669 0
vt -1.125546 0.07
vt -1.04669 0.07
vt 0.9363458 0
vt 0.9954813 0
vt 0.9363458 0.07
vt 0.9954813 0.07
vt -0.7966122 0
vt -0.7204154 0
vt -0.7966122 0.07
vt -0.7204154 0.07
vt 0.2341684 0
vt 0.2956202 0
vt 0.2341684 0.07
vt 0.2956202 0.07
vt -0.3044392 0
vt -0.227016 0
vt -0.3044392 0.07
vt -0.227016 0.07
vt 0.0717621 0
vt 0.2077251 0
vt 0.0717621 0.07
vt 0.2077251 0.07
vt -0.5046355 0
vt -0.2211353 0
vt -0.5046355 0.07
vt -0.2211353 0.07
vt 0.07211219 0
vt 0.2800731 0
vt 0.07211219 0.07
vt 0.2800731 0.07
vt -0.2143087 0
vt 0.08302944 0
vt -0.2143087 0.07
vt 0.08302944 0.07
vt 1.239568 0
vt 1.320448 0
vt 1.239568 0.07
vt 1.320448 0.07
vt 0.8549881 0
vt 0.8878128 0
vt 0.8549881 0.07
vt 0.8878128 0.07
vt 1.315397 0
vt 1.414258 0
vt 1.315397 0.07
vt 1.414258 0.07
vt 0.486698 0
vt 0.5333586 0
vt 0.486698 0.07
vt 0.5333586 0.07
vt 1.361121 0
vt 1.469871 0
vt 1.361121 0.07
vt 1.469871 0.07
vt 0.9681998 0
vt 1.046875 0
vt 0.9681998 0.07
vt 1.046875 0.07
vt 1.374975 0
vt 1.440539 0
vt 1.374975 0.07
vt 1.440539 0.07
vt 1.341223 0
vt 1.399337 0
vt 1.341223 0.07
vt 1.399337 0.07
vt 1.195493 0
vt 1.26621 0
vt 1.195493 0.07
vt 1.26621 0.07

vn 0 1 0
vn -0.8050552 0 0.5931999
vn -0.9789805 0 0.2039539
vn -0.6606283 0 0.7507132
vn -0.9990562 0 -0.04343766
vn -0.3033874 0 0.9528673
vn -0.9812825 0 -0.1925742
vn 0 0 1
vn 1 0 0
vn -1 0 0
vn 0.9989685 0 0.04540716
vn 0.8823531 0 0.470588
vn 0.6726726 0 0.7399403
vn 0.3636505 0 0.9315355
vn 0.9497756 0 -0.3129318
vn -0.8682429 0 0.4961394
vn 0.9343135 0 -0.3564523
vn 0.7570969 0 -0.6533026
vn 0.9988382 0 -0.04818876
vn 0.9598868 0 0.280388
vn 0.5118191 0 -0.8590932
vn 0.3207359 0 -0.9471686
vn 0.3028256 0 -0.953046
vn 0.8389614 0 0.5441911
vn -0.7259523 0 0.687745
vn -0.3624431 0 0.9320059
vn -0.986394 0 -0.1643983
vn -0.7546052 0 -0.656179
vn -0.9887156 0 0.1498047
vn -0.8454899 0 0.5339915
vn -0.4886035 0 -0.872506
vn -0.03446169 0 -0.999406
vn 0.1766641 0 -0.9842712
vn 0.3823526 0 -0.9240165
vn 0.3069574 0 -0.9517233
vn -0.8944279 0 0.4472122
vn -0.1015142 0 -0.9948341
vn 0.9374377 0 -0.3481533
vn -0.9122809 0 0.409565
vn 0.7999997 0 -0.6000005
vn -0.7348032 0 0.6782804
vn 0.6347392 0 -0.7727265
vn -0.380748 0 0.9246789
vn 0.3761621 0 -0.9265539
vn 0.1249365 0 -0.9921648
vn 0.03844803 0 0.9992606
vn 0.01868842 0 -0.9998254
vn 0.01307085 0 -0.9999146
vn -0.9246783 0 0.3807493
vn -0.763387 0 -0.6459414
vn -0.9344873 0 0.3559964
vn -0.6196438 0 -0.7848832
vn -0.9802195 0 0.1979133
vn -0.8574929 0 -0.5144957
vn -0.9995677 0 0.02939948
vn -0.9950373 0 -0.09950291
vn -0.9539937 0 -0.2998269

usemtl ProBuilderDefault
f 56/56/1 57/57/1 58/58/1
f 56/56/1 58/58/1 59/59/1
f 59/59/1 55/55/1 56/56/1
f 60/60/1 55/55/1 59/59/1
f 60/60/1 54/54/1 55/55/1
f 2/2/1 61/61/1 1/1/1
f 2/2/1 60/60/1 61/61/1
f 5/5/1 6/6/1 4/4/1
f 4/4/1 6/6/1 3/3/1
f 2/2/1 3/3/1 6/6/1
f 6/6/1 7/7/1 2/2/1
f 60/60/1 2/2/1 7/7/1
f 54/54/1 60/60/1 7/7/1
f 7/7/1 53/53/1 54/54/1
f 12/12/1 10/10/1 11/11/1
f 9/9/1 10/10/1 12/12/1
f 8/8/1 9/9/1 12/12/1
f 12/12/1 13/13/1 8/8/1
f 13/13/1 14/14/1 8/8/1
f 8/8/1 14/14/1 15/15/1
f 8/8/1 15/15/1 7/7/1
f 43/43/1 41/41/1 42/42/1
f 37/37/1 38/38/1 39/39/1
f 41/41/1 39/39/1 40/40/1
f 37/37/1 39/39/1 41/41/1
f 43/43/1 37/37/1 41/41/1
f 36/36/1 37/37/1 35/35/1
f 37/37/1 43/43/1 35/35/1
f 34/34/1 35/35/1 43/43/1
f 33/33/1 34/34/1 43/43/1
f 33/33/1 43/43/1 32/32/1
f 43/43/1 44/44/1 32/32/1
f 31/31/1 32/32/1 44/44/1
f 22/22/1 23/23/1 21/21/1
f 23/23/1 24/24/1 21/21/1
f 24/24/1 20/20/1 21/21/1
f 24/24/1 19/19/1 20/20/1
f 25/25/1 19/19/1 24/24/1
f 18/18/1 19/19/1 25/25/1
f 26/26/1 18/18/1 25/25/1
f 17/17/1 18/18/1 26/26/1
f 27/27/1 17/17/1 26/26/1
f 16/16/1 17/17/1 27/27/1
f 28/28/1 16/16/1 27/27/1
f 29/29/1 16/16/1 28/28/1
f 29/29/1 15/15/1 16/16/1
f 30/30/1 15/15/1 29/29/1
f 30/30/1 31/31/1 15/15/1
f 44/44/1 15/15/1 31/31/1
f 7/7/1 15/15/1 44/44/1
f 53/53/1 7/7/1 44/44/1
f 53/53/1 44/44/1 52/52/1
f 52/52/1 44/44/1 45/45/1
f 52/52/1 45/45/1 51/51/1
f 45/45/1 46/46/1 51/51/1
f 51/51/1 46/46/1 50/50/1
f 46/46/1 47/47/1 50/50/1
f 50/50/1 47/47/1 49/49/1
f 48/48/1 49/49/1 47/47/1
f 57/63/2 63/65/2 62/64/2
f 62/64/2 58/62/2 57/63/2
f 56/67/3 64/69/3 63/68/3
f 63/68/3 57/66/3 56/67/3
f 58/71/4 62/73/4 65/72/4
f 65/72/4 59/70/4 58/71/4
f 55/75/5 66/77/5 64/76/5
f 64/76/5 56/74/5 55/75/5
f 59/79/6 65/81/6 67/80/6
f 67/80/6 60/78/6 59/79/6
f 54/83/7 68/85/7 66/84/7
f 66/84/7 55/82/7 54/83/7
f 61/87/8 70/89/8 69/88/8
f 69/88/8 1/86/8 61/87/8
f 1/91/9 69/93/9 71/92/9
f 71/92/9 2/90/9 1/91/9
f 60/95/10 67/97/10 70/96/10
f 70/96/10 61/94/10 60/95/10
f 5/99/11 73/101/11 72/100/11
f 72/100/11 6/98/11 5/99/11
f 4/103/12 74/105/12 73/104/12
f 73/104/12 5/102/12 4/103/12
f 3/107/13 75/109/13 74/108/13
f 74/108/13 4/106/13 3/107/13
f 2/111/14 71/113/14 75/112/14
f 75/112/14 3/110/14 2/111/14
f 6/115/15 72/117/15 76/116/15
f 76/116/15 7/114/15 6/115/15
f 53/119/16 77/121/16 68/120/16
f 68/120/16 54/118/16 53/119/16
f 10/123/17 79/125/17 78/124/17
f 78/124/17 11/122/17 10/123/17
f 11/127/18 78/129/18 80/128/18
f 80/128/18 12/126/18 11/127/18
f 9/131/19 81/133/19 79/132/19
f 79/132/19 10/130/19 9/131/19
f 8/135/20 82/137/20 81/136/20
f 81/136/20 9/134/20 8/135/20
f 12/139/21 80/141/21 83/140/21
f 83/140/21 13/138/21 12/139/21
f 13/143/22 83/145/22 84/144/22
f 84/144/22 14/142/22 13/143/22
f 14/147/23 84/149/23 85/148/23
f 85/148/23 15/146/23 14/147/23
f 7/151/24 76/153/24 82/152/24
f 82/152/24 8/150/24 7/151/24
f 41/155/25 87/157/25 86/156/25
f 86/156/25 42/154/25 41/155/25
f 42/159/26 86/161/26 88/160/26
f 88/160/26 43/158/26 42/159/26
f 38/163/27 90/165/27 89/164/27
f 89/164/27 39/162/27 38/163/27
f 37/167/28 91/169/28 90/168/28
f 90/168/28 38/166/28 37/167/28
f 39/171/29 89/173/29 92/172/29
f 92/172/29 40/170/29 39/171/29
f 40/175/30 92/177/30 87/176/30
f 87/176/30 41/174/30 40/175/30
f 36/179/31 93/181/31 91/180/31
f 91/180/31 37/178/31 36/179/31
f 35/183/32 94/185/32 93/184/32
f 93/184/32 36/182/32 35/183/32
f 34/187/33 95/189/33 94/188/33
f 94/188/33 35/186/33 34/187/33
f 33/191/34 96/193/34 95/192/34
f 95/192/34 34/190/34 33/191/34
f 32/195/35 97/197/35 96/196/35
f 96/196/35 33/194/35 32/195/35
f 43/199/36 88/201/36 98/200/36
f 98/200/36 44/198/36 43/199/36
f 31/203/37 99/205/37 97/204/37
f 97/204/37 32/202/37 31/203/37
f 22/207/8 101/209/8 100/208/8
f 100/208/8 23/206/8 22/207/8
f 21/210/10 102/211/10 101/96/10
f 101/96/10 22/94/10 21/210/10
f 23/91/9 100/93/9 103/213/9
f 103/213/9 24/212/9 23/91/9
f 20/214/10 104/215/10 102/211/10
f 102/211/10 21/210/10 20/214/10
f 19/216/10 105/217/10 104/215/10
f 104/215/10 20/214/10 19/216/10
f 24/219/38 103/221/38 106/220/38
f 106/220/38 25/218/38 24/219/38
f 18/223/39 107/225/39 105/224/39
f 105/224/39 19/222/39 18/223/39
f 25/227/40 106/229/40 108/228/40
f 108/228/40 26/226/40 25/227/40
f 17/231/41 109/233/41 107/232/41
f 107/232/41 18/230/41 17/231/41
f 26/235/42 108/237/42 110/236/42
f 110/236/42 27/234/42 26/235/42
f 16/239/43 111/241/43 109/240/43
f 109/240/43 17/238/43 16/239/43
f 27/243/44 110/245/44 112/244/44
f 112/244/44 28/242/44 27/243/44
f 28/247/45 112/249/45 113/248/45
f 113/248/45 29/246/45 28/247/45
f 15/251/46 85/253/46 111/252/46
f 111/252/46 16/250/46 15/251/46
f 29/255/47 113/257/47 114/256/47
f 114/256/47 30/254/47 29/255/47
f 30/259/48 114/261/48 99/260/48
f 99/260/48 31/258/48 30/259/48
f 52/263/49 115/265/49 77/264/49
f 77/264/49 53/262/49 52/263/49
f 44/267/50 98/269/50 116/268/50
f 116/268/50 45/266/50 44/267/50
f 51/271/51 117/273/51 115/272/51
f 115/272/51 52/270/51 51/271/51
f 45/275/52 116/277/52 118/276/52
f 118/276/52 46/274/52 45/275/52
f 50/279/53 119/281/53 117/280/53
f 117/280/53 51/278/53 50/279/53
f 46/283/54 118/285/54 120/284/54
f 120/284/54 47/282/54 46/283/54
f 49/287/55 121/289/55 119/288/55
f 119/288/55 50/286/55 49/287/55
f 48/291/56 122/293/56 121/292/56
f 121/292/56 49/290/56 48/291/56
f 47/295/57 120/297/57 122/296/57
f 122/296/57 48/294/57 47/295/57

